<svg width="24" height="24" viewBox="0 0 24 24" fill="none" xmlns="http://www.w3.org/2000/svg">
<path d="M12 24C18.6274 24 24 18.6274 24 12C24 5.37258 18.6274 0 12 0C5.37258 0 0 5.37258 0 12C0 18.6274 5.37258 24 12 24Z" fill="white"/>
<path d="M12 23.5C18.3513 23.5 23.5 18.3513 23.5 12C23.5 5.64873 18.3513 0.5 12 0.5C5.64873 0.5 0.5 5.64873 0.5 12C0.5 18.3513 5.64873 23.5 12 23.5Z" stroke="black"/>
<path d="M12.8126 14.4301L14.7916 11.5391C14.8743 11.4288 14.923 11.2967 14.9316 11.1591C14.9316 10.9431 14.7576 10.8091 14.4676 10.8091H10.1896C9.89956 10.8091 9.72656 10.9431 9.72656 11.1581C9.73516 11.2951 9.78384 11.4265 9.86656 11.5361L11.8456 14.4291C11.8962 14.5138 11.9671 14.5847 12.052 14.6351C12.1368 14.6856 12.2329 14.7141 12.3316 14.7181C12.4293 14.7136 12.5244 14.685 12.6084 14.6347C12.6923 14.5845 12.7625 14.5142 12.8126 14.4301Z" fill="black"/>
</svg>
