<svg width="40" height="20" viewBox="0 0 40 20" fill="none" xmlns="http://www.w3.org/2000/svg">
<path d="M39.273 8.52308L31.164 0.453083C30.8723 0.162671 30.4771 4.2901e-05 30.0655 0.000980595C29.6538 0.00191829 29.2594 0.166335 28.969 0.458073C28.6786 0.749811 28.516 1.14497 28.5169 1.55661C28.5178 1.96826 28.6823 2.36267 28.974 2.65308L34.418 8.07108H1.552C1.15453 8.09128 0.780013 8.26339 0.505833 8.55185C0.231652 8.84032 0.0787654 9.2231 0.0787654 9.62108C0.0787654 10.0191 0.231652 10.4018 0.505833 10.6903C0.780013 10.9788 1.15453 11.1509 1.552 11.1711H34.418L28.974 16.5891C28.6823 16.8795 28.5178 17.2739 28.5169 17.6856C28.516 18.0972 28.6786 18.4923 28.969 18.7841C29.2594 19.0758 29.6538 19.2402 30.0655 19.2412C30.4771 19.2421 30.8723 19.0795 31.164 18.7891L39.273 10.7191C39.5642 10.4278 39.7277 10.0329 39.7277 9.62108C39.7277 9.20927 39.5642 8.81431 39.273 8.52308Z" fill="#1D293F"/>
</svg>
